<!--?xml version="1.0" encoding="utf-8"?-->
<!-- Generator: Adobe Illustrator 18.1.1, SVG Export Plug-In . SVG Version: 6.00 Build 0)  -->

<svg version="1.1" id="_x31_0" xmlns="http://www.w3.org/2000/svg" xmlns:xlink="http://www.w3.org/1999/xlink" x="0px" y="0px" viewBox="0 0 512 512" style="width: 32px; height: 32px; opacity: 1;" xml:space="preserve">
<style type="text/css">
	.st0{fill:#374149;}
</style>
<g>
	<path class="st0" d="M497.004,216.457c-3.238-15.808-8.066-31.363-14.355-46.23c-6.172-14.594-13.805-28.652-22.688-41.801
		c-8.801-13.023-18.898-25.262-30.015-36.378c-11.126-11.126-23.363-21.223-36.379-30.012c-3.254-2.199-6.75-3.664-10.309-4.797
		c-0.297-0.098-0.598-0.184-0.894-0.27c-5.211-1.523-10.558-1.961-15.824-1.344c-0.118,0.016-0.234,0.02-0.352,0.035
		c-4.644,0.586-9.121,1.992-13.312,4.157c-0.219,0.113-0.438,0.222-0.657,0.339c-4.003,2.161-7.636,5.008-10.785,8.547
		c-0.262,0.297-0.508,0.61-0.762,0.914c-0.883,1.055-1.855,2.008-2.641,3.172c-12.367,18.305-7.55,43.172,10.754,55.539
		c8.798,5.938,17.07,12.766,24.598,20.293c7.515,7.516,14.343,15.794,20.289,24.59c5.992,8.867,11.141,18.351,15.301,28.183
		c4.226,10,7.477,20.469,9.656,31.102C420.863,243.442,422,254.711,422,266c0,11.285-1.137,22.558-3.371,33.492
		c-2.179,10.641-5.43,21.11-9.652,31.102c-4.164,9.84-9.313,19.324-15.297,28.184c-5.954,8.808-12.782,17.082-20.297,24.598
		c-7.528,7.527-15.801,14.355-24.602,20.301c-8.867,5.992-18.348,11.137-28.184,15.297c-9.992,4.226-20.457,7.477-31.102,9.652
		c-21.875,4.477-45.117,4.477-66.992,0c-10.645-2.175-21.11-5.426-31.11-9.656c-9.828-4.156-19.309-9.301-28.179-15.297
		c-8.798-5.942-17.07-12.77-24.598-20.297c-7.515-7.516-14.343-15.79-20.289-24.59c-5.992-8.867-11.141-18.351-15.301-28.179
		c-4.226-10.004-7.477-20.473-9.656-31.106C91.137,288.558,90,277.285,90,266c0-11.289,1.137-22.558,3.371-33.492
		c2.179-10.645,5.43-21.114,9.652-31.102c4.164-9.844,9.313-19.328,15.297-28.188c5.954-8.804,12.782-17.082,20.297-24.598
		c7.528-7.527,15.801-14.355,24.598-20.293c18.304-12.367,23.121-37.234,10.754-55.539c-0.786-1.16-1.754-2.109-2.633-3.16
		c-0.258-0.309-0.508-0.629-0.774-0.93c-3.145-3.535-6.778-6.379-10.778-8.539c-0.222-0.121-0.445-0.234-0.671-0.351
		c-4.188-2.157-8.657-3.558-13.294-4.149c-0.129-0.015-0.258-0.023-0.386-0.035c-5.258-0.617-10.594-0.179-15.793,1.34
		c-0.301,0.09-0.602,0.176-0.902,0.274c-3.558,1.133-7.055,2.598-10.305,4.797c-13.016,8.789-25.254,18.886-36.379,30.012
		c-11.117,11.117-21.214,23.355-30.023,36.386c-8.875,13.141-16.508,27.199-22.683,41.801
		c-6.286,14.859-11.114,30.414-14.352,46.234C11.68,232.676,10,249.34,10,266c0,16.656,1.68,33.32,4.996,49.539
		c3.238,15.812,8.066,31.363,14.355,46.234c6.172,14.59,13.805,28.648,22.688,41.801c8.801,13.019,18.898,25.262,30.015,36.375
		c11.126,11.125,23.363,21.222,36.375,30.011c13.149,8.887,27.215,16.52,41.801,22.688c14.859,6.289,30.418,11.117,46.234,14.351
		c16.207,3.317,32.871,5,49.535,5s33.328-1.683,49.535-5c15.816-3.234,31.375-8.062,46.23-14.348
		c14.59-6.171,28.656-13.804,41.801-22.687c13.016-8.793,25.254-18.89,36.379-30.015c11.117-11.114,21.214-23.356,30.023-36.383
		c8.875-13.145,16.508-27.203,22.683-41.805c6.286-14.859,11.114-30.41,14.352-46.23C500.32,299.32,502,282.656,502,266
		C502,249.34,500.32,232.676,497.004,216.457z" style="fill: rgb(255, 255, 255);"></path>
	<path class="st0" d="M256,240c22,0,40-18,40-40V40c0-22-18-40-40-40s-40,18-40,40v160C216,222,234,240,256,240z" style="fill: rgb(255, 255, 255);"></path>
</g>
</svg>
